<svg xmlns="http://www.w3.org/2000/svg" viewBox="0 0 350 72" width="292" height="60">
	<style>
		tspan { white-space:pre }
	</style>
	<path fill="#ffffff" d="M39.06 57.3L39.06 29.45L50.1 45.32L57 45.32L67.8 29.45L67.8 57.3L76.06 57.3L76.06 16L68.09 16L53.46 36L39.06 16L30.8 16L30.8 57.3ZM90.22 49.04L90.22 24.26L110.81 24.26L110.81 49.04ZM114.94 57.3L119.01 53.23L119.01 20.19L114.94 16L86.03 16L81.96 20.19L81.96 53.23L86.03 57.3ZM124.91 16L124.91 53.23L128.98 57.3L157.89 57.3L161.96 53.23L161.96 16L153.76 16L153.76 49.04L133.17 49.04L133.17 16ZM204.91 28.39L192.58 16L167.86 16L167.86 57.3L200.84 57.3L204.91 53.23ZM196.71 49.04L176.12 49.04L176.12 24.26L188.45 24.26L196.71 32.52ZM210.22 16L210.22 57.3L245.27 57.3L245.27 49.04L218.48 49.04L218.48 16ZM284.44 57.3L284.44 49.04L257.66 49.04L257.66 40.84L282.38 40.84L282.38 32.58L257.66 32.58L257.66 24.26L284.44 24.26L284.44 16L249.4 16L249.4 57.3ZM300.32 32.58L287.98 32.58L287.98 40.84L300.32 40.84L300.32 53.23L308.58 53.23L308.58 40.84L320.97 40.84L320.97 32.58L308.58 32.58L308.58 20.19L300.32 20.19Z" />
</svg>