<svg xmlns="http://www.w3.org/2000/svg" viewBox="0 0 300 72" width="300" height="72">
	<style>
		tspan { white-space:pre }
	</style>
	<path fill="#ffffff" d="M11.4 56L11.4 27.68L22.62 43.82L29.64 43.82L40.62 27.68L40.62 56L49.02 56L49.02 14L40.92 14L26.04 34.34L11.4 14L3 14L3 56ZM63.42 47.6L63.42 22.4L84.36 22.4L84.36 47.6ZM88.56 56L92.7 51.86L92.7 18.26L88.56 14L59.16 14L55.02 18.26L55.02 51.86L59.16 56ZM136.38 26.6L123.84 14L98.7 14L98.7 56L132.24 56L136.38 51.86ZM128.04 47.6L107.1 47.6L107.1 22.4L119.64 22.4L128.04 30.8ZM141.78 14L141.78 51.86L145.92 56L175.32 56L179.46 51.86L179.46 14L171.12 14L171.12 47.6L150.18 47.6L150.18 14ZM185.46 14L185.46 56L221.1 56L221.1 47.6L193.86 47.6L193.86 14ZM260.94 56L260.94 47.6L233.7 47.6L233.7 39.26L258.84 39.26L258.84 30.86L233.7 30.86L233.7 22.4L260.94 22.4L260.94 14L225.3 14L225.3 56ZM277.08 30.86L264.54 30.86L264.54 39.26L277.08 39.26L277.08 51.86L285.48 51.86L285.48 39.26L298.08 39.26L298.08 30.86L285.48 30.86L285.48 18.26L277.08 18.26Z" />
</svg>