<?xml version="1.0" standalone="no"?>
<!DOCTYPE svg PUBLIC "-//W3C//DTD SVG 20010904//EN" "http://www.w3.org/TR/2001/REC-SVG-20010904/DTD/svg10.dtd">
<svg version="1.0" xmlns="http://www.w3.org/2000/svg" width="260pt" height="260pt" viewBox="0 0 260 260" preserveAspectRatio="xMidYMid meet">
<g transform="translate(0,260) scale(0.1,-0.1)" fill="#000000" stroke="none">
<path d="M176 2000 c-2 -3 -2 -241 -1 -530 2 -569 5 -610 56 -716 65 -138 184 -195 401 -196 189 0 320 65 378 188 50 108 53 142 55 712 1 371 -2 535 -9 540 -6 4 -55 7 -108 8 l-98 0 -1 -500 c0 -276 -3 -521 -5 -546 -11 -111 -49 -182 -116 -216 -38 -19 -139 -26 -182 -11 -75 25 -129 96 -143 190 -3 23 -7 274 -8 557 -1 283 -3 518 -4 521 -1 8 -212 7 -215 -1z"/>
<path d="M1224 1918 l1 -83 164 -5 164 -5 1 -623 c0 -426 3 -622 11 -623 5 -1 46 -2 90 -3 135 -3 120 -84 120 630 l1 619 164 5 165 5 0 83 1 82 -442 0 -441 0 1 -82z"/>
<path d="M2323 778 c-44 -11 -83 -61 -83 -105 0 -89 76 -138 168 -109 9 3 28 22 41 41 59 87 -23 201 -126 173z"/>
</g>
</svg>
